<svg aria-hidden="true" style="position: absolute; width: 0; height: 0; overflow: hidden;" version="1.1" xmlns="http://www.w3.org/2000/svg" xmlns:xlink="http://www.w3.org/1999/xlink">
<defs>
<symbol id="on" viewBox="0 0 45 32">
<path d="M43.536 7.008l-24.358 23.776c-0.776 0.743-1.831 1.2-2.992 1.2s-2.216-0.457-2.994-1.202l0.002 0.002-11.971-11.584c-0.765-0.73-1.241-1.757-1.241-2.896s0.476-2.166 1.239-2.895l0.002-0.002c0.77-0.757 1.826-1.224 2.992-1.224s2.222 0.467 2.993 1.225l-0.001-0.001 8.979 8.672 21.366-20.896c0.776-0.743 1.831-1.2 2.992-1.2s2.216 0.457 2.994 1.202l-0.002-0.002c0.765 0.736 1.24 1.768 1.24 2.912s-0.475 2.176-1.239 2.911l-0.001 0.001z"></path>
</symbol>
<symbol id="star" viewBox="0 0 33 32">
<path d="M20.931 9.447c0.302 0.91 1.143 1.555 2.136 1.557h8.798c0.001 0 0.003 0 0.004 0 0.87 0 1.575 0.705 1.575 1.575 0 0.523-0.255 0.986-0.646 1.272l-0.004 0.003-7.118 5.172c-0.564 0.414-0.925 1.074-0.925 1.818 0 0.248 0.040 0.487 0.114 0.71l-0.005-0.016 2.718 8.375c0.049 0.146 0.077 0.314 0.077 0.488 0 0.871-0.706 1.578-1.578 1.578-0.349 0-0.672-0.114-0.934-0.306l0.004 0.003-7.117-5.172c-0.366-0.269-0.825-0.431-1.322-0.431s-0.957 0.162-1.329 0.435l0.006-0.004-7.117 5.172c-0.257 0.189-0.58 0.303-0.929 0.303-0.871 0-1.578-0.706-1.578-1.578 0-0.174 0.028-0.342 0.081-0.499l-0.003 0.011 2.718-8.375c0.070-0.207 0.11-0.446 0.11-0.694 0-0.745-0.362-1.405-0.92-1.814l-0.006-0.004-7.117-5.172c-0.396-0.29-0.651-0.753-0.651-1.275 0-0.87 0.705-1.575 1.575-1.575 0.002 0 0.003 0 0.004 0h8.798c0.993-0.003 1.835-0.648 2.132-1.541l0.005-0.016 2.72-8.36c0.212-0.639 0.804-1.092 1.502-1.092s1.29 0.453 1.499 1.081l0.003 0.011z"></path>
</symbol>
</defs>
</svg>
