<svg xmlns="http://www.w3.org/2000/svg" width="22.75" height="21.78" viewBox="0 0 22.75 21.78">
  <defs>
    <style>
      .cls-1 {
        fill: #f2bc3b;
        fill-rule: evenodd;
      }
    </style>
  </defs>
  <path id="Star_Icon" data-name="Star Icon" class="cls-1" d="M866.871,5677.87a1.533,1.533,0,0,0,1.454,1.06h5.988a1.072,1.072,0,0,1,.632,1.94l-4.845,3.52a1.531,1.531,0,0,0-.555,1.71l1.85,5.7a1.074,1.074,0,0,1-1.654,1.2l-4.844-3.52a1.528,1.528,0,0,0-1.8,0l-4.844,3.52a1.074,1.074,0,0,1-1.654-1.2l1.85-5.7a1.53,1.53,0,0,0-.556-1.71l-4.844-3.52a1.072,1.072,0,0,1,.632-1.94h5.988a1.533,1.533,0,0,0,1.454-1.06l1.851-5.69a1.075,1.075,0,0,1,2.045,0Z" transform="translate(-852.625 -5671.44)"/>
</svg>
