<svg xmlns="http://www.w3.org/2000/svg" width="108" height="35.03" viewBox="0 0 108 35.03">
  <defs>
    <style>
      .cls-1 {
        fill: #26272d;
        fill-rule: evenodd;
      }
    </style>
  </defs>
  <path id="Logo" class="cls-1" d="M1308.46,7662.96c-0.31.2-.45,1.71-1.32,1.7-1.53-.01-0.23-3.22.16-4.5,0.22-.75.97-3.12,2.31-7.17,2.33-.36,4.59-0.95,5.2-1.55a11.915,11.915,0,0,0,2.41-3.83,57.446,57.446,0,0,1-6.39,1.49l2.45-8.06a0.467,0.467,0,0,0-.66-0.12,9.6,9.6,0,0,0-2.52,1.61c-0.54.65-1.59,3.7-2.68,7.16-0.09.02-.18,0.03-0.28,0.05-1.4.22-2.72,0.41-3.97,0.57l0.35-.69a47.569,47.569,0,0,0,2.62-4.36c1.47-2.57,1.04-4.35.57-5.01a2.626,2.626,0,0,0-3.19-.35,4.044,4.044,0,0,0-1.45,2.43c-0.79,2.53-2.27,7.29-2.27,7.29s-0.19.51-.39,1.07a49.689,49.689,0,0,1-10.46-.31c-4.01-.52-7.23-1.28-10.3.21a10.531,10.531,0,0,0-1.7,1.04c-0.25-2.42-2.8-3.42-4.21-3.59a7.611,7.611,0,0,0-6.66,2.52,13.671,13.671,0,0,0-3.55,6.02c-1.01,3.64-.5,6.26.91,7.94,1.82,2.16,5.53,2.37,7.83.86,1.03-.68,2.41-2.27,3.11-5.28a4.726,4.726,0,0,0,1,.01,3.168,3.168,0,0,0,2.23-1.38c-0.24.89-.54,1.83-1.14,3.58a3.2,3.2,0,0,0,.08,3.03,2.555,2.555,0,0,0,2.2.81c1.71,0.05,3.83-2.1,3.83-2.1s0.2,1.97,3.09,2.1a4.02,4.02,0,0,0,3.42-1.65,1.871,1.871,0,0,0,2.02,1.65c1.92,0.13,3.49-1.98,4.54-4.01l-1.97,5.94s-0.92,2.94-.06,4.55c0.68,1.3,2.51,1.5,3.37,1.31,0.91-.19,2.27-0.61,3.69-3.2,1.67-3.07,2-10.37,2.02-11.8a30.3,30.3,0,0,0-.37-5.58h3.25c0.23,0,.47-0.01.72-0.02-1.15,3.85-2.16,7.41-2.39,8.07-1.53,4.55,1.91,4.93,2.41,4.93,3.45,0.02,4.33-2.32,4.33-2.32a2.9,2.9,0,0,0,.32-1.06C1310.75,7662.32,1309.12,7662.53,1308.46,7662.96Zm-3.26-20.72c0.24-.75.81-1.4,1.07-0.71s-0.29,3.08-1.76,5.32c-0.52.8-1.47,2.44-1.67,2.74C1303.33,7648.15,1304.65,7643.98,1305.2,7642.24Zm-31.49,16.69a1.8,1.8,0,0,1-1.48-1.58,0.7,0.7,0,0,1,1.16-.73A2.549,2.549,0,0,1,1273.71,7658.93Zm15.46,2.5a4.728,4.728,0,0,1-1.58,2.47,1.418,1.418,0,0,1-2.32-1.09,8.963,8.963,0,0,1,1.03-3.84c0.82-1.82,1.65-2.76,2.55-2.64a1.249,1.249,0,0,1,1.01,1.51A11.774,11.774,0,0,1,1289.17,7661.43Zm3.07,2.63c-0.99.01-.4-1.9-0.21-2.45,0.31-.93,2.07-6.47,2.07-6.47s-2.01-.22-2.63.22a6.326,6.326,0,0,0-.88,1.1,1.4,1.4,0,0,0-1.52-1.32,5.234,5.234,0,0,0-3.98,1.68,8.892,8.892,0,0,0-2.82,6.13s-1.75,1.9-2.76.88c-0.43-.44.41-2.62,0.77-3.73,0.57-1.75,1.53-4.96,1.53-4.96a9.066,9.066,0,0,0-2.84.22c-1.01.56-1.68,2.53-2.63,3.32a1.926,1.926,0,0,1-1.81.35,3.678,3.678,0,0,0-.1-2.39,1.762,1.762,0,0,0-2.52-.82,1.88,1.88,0,0,0-.53,2.22,3.186,3.186,0,0,0,2.01,1.93,7.114,7.114,0,0,1-1.53,2.96,2.814,2.814,0,0,1-4.79-.1c-0.96-1.36-.71-4.94.75-7.96s2.87-4.02,4.46-4.37a2.487,2.487,0,0,1,3.16,3.03l-0.07.31a0.363,0.363,0,0,0,.04.29c0.26,0.26,1,.5,2.15-0.77,1.74-1.93,6.24-1.44,12.27-.64a62.558,62.558,0,0,0,8.74.63l-1.98,5.98C1295.6,7661.5,1294.06,7664.04,1292.24,7664.06Zm7.87,3.74c-1.08,2.65-1.98,3.27-2.65,3.53-0.62.24-.91,0.06-1.06-0.36a4.082,4.082,0,0,1,.17-1.81l4.88-15.08A31.129,31.129,0,0,1,1300.11,7667.8Zm67.48-16.33a12.075,12.075,0,0,0,2.41-3.95s-1.85,1-8.14,2.03l0.35-.5a44.955,44.955,0,0,0,2.62-4.36c1.6-2.93,1.03-4.34.56-5a2.6,2.6,0,0,0-3.19-.35,4.092,4.092,0,0,0-1.45,2.43c-0.79,2.52-2.27,7.28-2.27,7.28s-0.18.49-.37,1.04a55.857,55.857,0,0,1-15.28-.02c-4.01-.51-7.02-1.06-10.08.43a9.944,9.944,0,0,0-1.49.88c-0.08-1.39-.96-3.31-4.72-3.48a9.66,9.66,0,0,0-6.63,2.76,13.374,13.374,0,0,0-3.56,6.03c-1.01,3.64-.5,6.26.92,7.94a4.706,4.706,0,0,0,7.81-.94,5.324,5.324,0,0,0,1.52,1.89c1.06,0.85,3.69,1.16,5.66-1.91a10.965,10.965,0,0,0,1.08-2.9,2.719,2.719,0,0,0,.89.16,2.169,2.169,0,0,0,1.14-.36c-0.48,1.85-.33,3.5.67,4.59,1.65,1.8,7.08,1.9,8.49-4.81a4.367,4.367,0,0,0,2.09-1.6,2.515,2.515,0,0,0,2.51.02,24.862,24.862,0,0,1-1.19,3.6c-0.36,1.09-.57,2.21.08,3.04a2.509,2.509,0,0,0,2.19.81c2.35,0.02,4.52-3.99,4.52-3.99l-1.2,3.35a0.478,0.478,0,0,0,.5.63c1.09,0,1.39.03,1.99,0.03a0.8,0.8,0,0,0,.58-0.66l1.08-2.98s1.75-.01,1.75,1.49a1.921,1.921,0,0,0,2.11,2.13c0.94,0.03,2.5-.1,3.25-1.04a8.646,8.646,0,0,0,.67-1.25c0.15-.43.56-1.03-0.3-1.19a7.386,7.386,0,0,0-1.34.08,1.092,1.092,0,0,0-.95.85,1.273,1.273,0,0,1-.81,1.06c-0.87,0,0-1.27-1.53-2.34a6.073,6.073,0,0,0-2.19-.42,5.878,5.878,0,0,0,2.76-.64c1.31-.64,3.59-1.49,3.81-4.9,0.14-2.13-3.81-2.34-5.35,0l1.02-3.22C1362.93,7653.01,1366.75,7652.28,1367.59,7651.47Zm-3.7-9.79c0.23-.76.81-1.41,1.06-0.72s-0.29,3.09-1.75,5.32c-0.53.81-1.48,2.45-1.68,2.75C1362.01,7647.58,1363.34,7643.41,1363.89,7641.68Zm-37.94,17.97s-0.61-2.26,0-3.4c0.55-1.03,1.3-.54,1.32.21A4.272,4.272,0,0,1,1325.95,7659.65Zm17.33-1.1c-0.22.01-.46,0.01-0.72,0.01-1.1,0-2.31-.24-2.41.43-0.22,1.49,2.7,1.64,2.74,1.64-0.01.07-.05,0.2-0.06,0.27-1.15,4.05-4.21,4.05-4.65,2.34a6.761,6.761,0,0,1,.65-4.04c1.27-2.98,3.07-3.19,3.73-2.55A2.287,2.287,0,0,1,1343.28,7658.55Zm3.36-.96a1.231,1.231,0,0,1-.48-1.56,0.6,0.6,0,0,1,1.1.1A1.5,1.5,0,0,1,1346.64,7657.59Zm9.3,0.07s-1.56,3.99-3.12,5.5c0,0-1.55,1.68-2.06.72-0.29-.53.73-3.14,1.09-4.25,0.57-1.75,1.43-4.42,1.43-4.42s-2.39-.27-3.05.59a13.75,13.75,0,0,1-1.53,1.91,1.043,1.043,0,0,1-1.39.28s1.16-1.3.47-2.4a1.465,1.465,0,0,0-1.92-.47,1.427,1.427,0,0,0-.7,1.65,2.754,2.754,0,0,0,.71,1.36,1.831,1.831,0,0,1-1.16.31c-0.08-1.73-.77-3.47-3.54-3.49-1.75-.01-4.06,1.4-5.2,3.91a1.558,1.558,0,0,1-1.52.55,0.929,0.929,0,0,1-.8-0.38c0.18-2.05,0-3.22-.91-3.54a1.34,1.34,0,0,0-1.59.76,3.539,3.539,0,0,0,.85,3.26,6.414,6.414,0,0,1-.62,2.67c-2.14,3.85-5.43.45-5.21-1.04,4.38-6.17.43-7.27-.9-6.55-2.68,1.44-1.05,6.42-.89,6.89-0.05,1.03-2.55,2.66-3.91.94-1.07-1.37-.41-5.51,1.05-8.54s3.7-4.06,5.67-4.02a2.142,2.142,0,0,1,2.39,1.97,6.9,6.9,0,0,1-.18,2.02c-0.06.27,0.5,1.33,2.47-.58,1.98-1.93,4.59-2.09,10.96-.85a78.768,78.768,0,0,0,14.44.86C1356.67,7655.25,1355.94,7657.66,1355.94,7657.66Zm6.04,0.9a3.936,3.936,0,0,1-3.93,2.34l0.86-2.55C1360,7656.01,1363.73,7655.16,1361.98,7658.56Z" transform="translate(-1262 -7638.97)"/>
</svg>
