<svg aria-hidden="true" style="position: absolute; width: 0; height: 0; overflow: hidden;" version="1.1" xmlns="http://www.w3.org/2000/svg" xmlns:xlink="http://www.w3.org/1999/xlink">
<defs>
<symbol id="facebook" viewBox="0 0 16 32">
<path d="M10.64 31.982h-7.111v-15.093h-3.556v-5.831h3.556v-3.484c0-4.747 2.005-7.573 7.703-7.573h4.743v5.813h-2.964c-2.219 0-2.366 0.818-2.366 2.329v2.916h5.372l-0.629 5.831h-4.743v15.093z"></path>
</symbol>
<symbol id="google" viewBox="0 0 51 32">
<path d="M16.245 32c-8.837 0-16-7.163-16-16s7.163-16 16-16v0c0.007 0 0.015-0 0.023-0 4.213 0 8.053 1.595 10.95 4.215l-0.014-0.013-4.787 4.608c-1.652-1.38-3.799-2.219-6.142-2.219-0.010 0-0.021 0-0.031 0h0.002c-5.134 0.082-9.264 4.263-9.264 9.409 0 5.197 4.213 9.41 9.41 9.41 3.993 0 7.406-2.488 8.772-5.998l0.022-0.064h-9.146v-6.699h16.094c0.225 1.004 0.354 2.157 0.354 3.34 0 0.003 0 0.006 0 0.009v-0c-0.071 8.852-7.263 16-16.125 16-0.041 0-0.083-0-0.124-0l0.006 0zM51.2 17.216h-5.653v5.568h-4.113v-5.568h-5.653v-4.053h5.653v-5.568h4.113v5.568h5.653v4.053z"></path>
</symbol>
<symbol id="linkedIn" viewBox="0 0 34 32">
<path d="M7.765 32.021v-21.589h-7.313v21.589h7.313zM4.109 7.488c2.242-0.014 4.054-1.835 4.054-4.079 0-2.253-1.826-4.079-4.079-4.079s-4.079 1.826-4.079 4.079c0 2.244 1.812 4.065 4.053 4.079h0.050zM11.817 32.021h7.315v-12.053c-0.004-0.072-0.006-0.156-0.006-0.24 0-0.54 0.091-1.059 0.259-1.542l-0.010 0.033c0.569-1.543 2.026-2.624 3.736-2.624 0.004 0 0.008 0 0.012 0h-0.001c2.65 0 3.71 1.963 3.71 4.885v11.541h7.315v-12.373c0-6.635-3.612-9.728-8.425-9.728-0.091-0.004-0.199-0.006-0.307-0.006-2.692 0-5.045 1.454-6.316 3.62l-0.019 0.034h0.049v-3.136h-7.315c0.096 2.027 0 21.589 0 21.589v0z"></path>
</symbol>
<symbol id="pinterest" viewBox="0 0 26 32">
<path d="M10.805 21.176c-0.888 4.405-1.976 8.621-5.193 10.842-0.994-6.664 1.459-11.671 2.598-16.998-1.941-3.087 0.233-9.299 4.329-7.774 5.037 1.901-4.363 11.501 1.948 12.687 6.588 1.261 9.278-10.805 5.193-14.72-5.903-5.666-17.186-0.132-15.799 7.981 0.339 1.976 2.504 2.579 0.866 5.308-3.778-0.791-4.905-3.595-4.76-7.36 0.233-6.155 5.835-10.447 11.469-11.049 7.115-0.753 13.794 2.466 14.716 8.791 1.037 7.153-3.211 14.889-10.822 14.325-1.749-0.28-3.294-1.002-4.562-2.046l0.016 0.013z"></path>
</symbol>
<symbol id="tumbler" viewBox="0 0 19 32">
<path d="M17 25.56c-0.744 0.33-1.609 0.533-2.518 0.56l-0.010 0c-2.506 0.060-2.49-2.36-2.512-3.72v-9.6h6.040v-4.8h-6.046v-8h-5.754c-0.122 0.017-0.216 0.116-0.226 0.239l-0 0.001c-0.171 3.644-2.601 6.678-5.914 7.743l-0.060 0.017v4.8h3.96v11.2c0 3.58 2.294 8.12 9.116 8 0.056 0.001 0.122 0.002 0.188 0.002 1.992 0 3.821-0.703 5.251-1.874l-0.015 0.012z"></path>
</symbol>
<symbol id="twitter" viewBox="0 0 39 32">
<path d="M38.857 3.794c-1.332 0.615-2.877 1.058-4.499 1.25l-0.073 0.007c1.653-1.012 2.893-2.561 3.488-4.4l0.016-0.057c-1.457 0.886-3.152 1.567-4.957 1.947l-0.106 0.019c-1.447-1.576-3.517-2.56-5.817-2.56h-0c-4.409 0.027-7.973 3.608-7.973 8.020 0 0.017 0 0.034 0 0.051v-0.003c0 0 0 0 0 0 0 0.656 0.076 1.295 0.219 1.907l-0.011-0.056c-6.658-0.357-12.504-3.554-16.393-8.391l-0.034-0.044c-0.678 1.165-1.079 2.564-1.079 4.056 0 2.783 1.392 5.241 3.518 6.714l0.027 0.018c-1.335-0.046-2.572-0.422-3.646-1.048l0.037 0.020v0.114c-0 0.012-0 0.026-0 0.040 0 3.859 2.72 7.083 6.347 7.859l0.053 0.009c-0.628 0.184-1.351 0.292-2.098 0.297l-0.003 0c-0.018 0-0.039 0-0.060 0-0.51 0-1.007-0.058-1.483-0.169l0.044 0.009c1.025 3.225 3.955 5.536 7.437 5.623l0.010 0c-2.68 2.151-6.122 3.451-9.868 3.451-0.012 0-0.024 0-0.035-0h0.002c-0.049 0.001-0.108 0.001-0.166 0.001-0.612 0-1.214-0.042-1.804-0.123l0.068 0.008c3.446 2.276 7.674 3.632 12.219 3.634h0.001c12.528-0.007 22.681-10.164 22.681-22.693 0-0.098-0.001-0.196-0.002-0.294l0 0.015c0-0.366 0-0.709-0.023-1.051 1.567-1.158 2.887-2.544 3.94-4.123l0.037-0.060z"></path>
</symbol>
</defs>
</svg>
