<svg xmlns="http://www.w3.org/2000/svg" width="17" height="14" viewBox="0 0 17 14">
  <defs>
    <style>
      .cls-1 {
        fill: #26272d;
        fill-rule: evenodd;
        opacity: 0.3;
      }
    </style>
  </defs>
  <path id="Twitter_Icon" data-name="Twitter Icon" class="cls-1" d="M232,7466.66a6.759,6.759,0,0,1-2,.55,3.516,3.516,0,0,0,1.533-1.95,7.084,7.084,0,0,1-2.215.86,3.452,3.452,0,0,0-2.545-1.12,3.509,3.509,0,0,0-3.488,3.53,3.649,3.649,0,0,0,.091.81,9.856,9.856,0,0,1-7.187-3.69,3.572,3.572,0,0,0,1.079,4.72,3.4,3.4,0,0,1-1.579-.45v0.05a3.516,3.516,0,0,0,2.8,3.46,3.481,3.481,0,0,1-.919.13,2.861,2.861,0,0,1-.656-0.07,3.5,3.5,0,0,0,3.258,2.46,6.927,6.927,0,0,1-4.332,1.51,5.738,5.738,0,0,1-.832-0.05,9.8,9.8,0,0,0,5.346,1.59,9.928,9.928,0,0,0,9.922-10.05c0-.16,0-0.31-0.01-0.46a7.146,7.146,0,0,0,1.74-1.83h0Z" transform="translate(-215 -7465)"/>
</svg>
